<svg id="visual" viewBox="0 0 900 600" width="900" height="600" xmlns="http://www.w3.org/2000/svg" xmlns:xlink="http://www.w3.org/1999/xlink" version="1.1"><rect x="0" y="0" width="900" height="600" fill="#212529"></rect><defs><linearGradient id="grad1_0" x1="33.3%" y1="0%" x2="100%" y2="100%"><stop offset="20%" stop-color="#545454" stop-opacity="1"></stop><stop offset="80%" stop-color="#545454" stop-opacity="1"></stop></linearGradient></defs><defs><linearGradient id="grad1_1" x1="33.3%" y1="0%" x2="100%" y2="100%"><stop offset="20%" stop-color="#545454" stop-opacity="1"></stop><stop offset="80%" stop-color="#4c4d4e" stop-opacity="1"></stop></linearGradient></defs><defs><linearGradient id="grad1_2" x1="33.3%" y1="0%" x2="100%" y2="100%"><stop offset="20%" stop-color="#454647" stop-opacity="1"></stop><stop offset="80%" stop-color="#4c4d4e" stop-opacity="1"></stop></linearGradient></defs><defs><linearGradient id="grad1_3" x1="33.3%" y1="0%" x2="100%" y2="100%"><stop offset="20%" stop-color="#454647" stop-opacity="1"></stop><stop offset="80%" stop-color="#3d3f41" stop-opacity="1"></stop></linearGradient></defs><defs><linearGradient id="grad1_4" x1="33.3%" y1="0%" x2="100%" y2="100%"><stop offset="20%" stop-color="#36383b" stop-opacity="1"></stop><stop offset="80%" stop-color="#3d3f41" stop-opacity="1"></stop></linearGradient></defs><defs><linearGradient id="grad1_5" x1="33.3%" y1="0%" x2="100%" y2="100%"><stop offset="20%" stop-color="#36383b" stop-opacity="1"></stop><stop offset="80%" stop-color="#2f3235" stop-opacity="1"></stop></linearGradient></defs><defs><linearGradient id="grad1_6" x1="33.3%" y1="0%" x2="100%" y2="100%"><stop offset="20%" stop-color="#282b2f" stop-opacity="1"></stop><stop offset="80%" stop-color="#2f3235" stop-opacity="1"></stop></linearGradient></defs><defs><linearGradient id="grad1_7" x1="33.3%" y1="0%" x2="100%" y2="100%"><stop offset="20%" stop-color="#282b2f" stop-opacity="1"></stop><stop offset="80%" stop-color="#212529" stop-opacity="1"></stop></linearGradient></defs><defs><linearGradient id="grad2_0" x1="0%" y1="0%" x2="66.7%" y2="100%"><stop offset="20%" stop-color="#545454" stop-opacity="1"></stop><stop offset="80%" stop-color="#545454" stop-opacity="1"></stop></linearGradient></defs><defs><linearGradient id="grad2_1" x1="0%" y1="0%" x2="66.7%" y2="100%"><stop offset="20%" stop-color="#4c4d4e" stop-opacity="1"></stop><stop offset="80%" stop-color="#545454" stop-opacity="1"></stop></linearGradient></defs><defs><linearGradient id="grad2_2" x1="0%" y1="0%" x2="66.7%" y2="100%"><stop offset="20%" stop-color="#4c4d4e" stop-opacity="1"></stop><stop offset="80%" stop-color="#454647" stop-opacity="1"></stop></linearGradient></defs><defs><linearGradient id="grad2_3" x1="0%" y1="0%" x2="66.7%" y2="100%"><stop offset="20%" stop-color="#3d3f41" stop-opacity="1"></stop><stop offset="80%" stop-color="#454647" stop-opacity="1"></stop></linearGradient></defs><defs><linearGradient id="grad2_4" x1="0%" y1="0%" x2="66.7%" y2="100%"><stop offset="20%" stop-color="#3d3f41" stop-opacity="1"></stop><stop offset="80%" stop-color="#36383b" stop-opacity="1"></stop></linearGradient></defs><defs><linearGradient id="grad2_5" x1="0%" y1="0%" x2="66.7%" y2="100%"><stop offset="20%" stop-color="#2f3235" stop-opacity="1"></stop><stop offset="80%" stop-color="#36383b" stop-opacity="1"></stop></linearGradient></defs><defs><linearGradient id="grad2_6" x1="0%" y1="0%" x2="66.7%" y2="100%"><stop offset="20%" stop-color="#2f3235" stop-opacity="1"></stop><stop offset="80%" stop-color="#282b2f" stop-opacity="1"></stop></linearGradient></defs><defs><linearGradient id="grad2_7" x1="0%" y1="0%" x2="66.7%" y2="100%"><stop offset="20%" stop-color="#212529" stop-opacity="1"></stop><stop offset="80%" stop-color="#282b2f" stop-opacity="1"></stop></linearGradient></defs><g transform="translate(900, 0)"><path d="M0 405.6C-40.9 397.9 -81.7 390.3 -123.3 379.5C-164.9 368.7 -207.2 354.8 -238.4 328.2C-269.7 301.5 -289.9 262.2 -311.5 226.3C-333 190.4 -355.9 158 -371.9 120.8C-387.8 83.7 -396.7 41.8 -405.6 0L0 0Z" fill="#24282c"></path><path d="M0 354.9C-35.8 348.2 -71.5 341.5 -107.9 332C-144.3 322.6 -181.3 310.4 -208.6 287.1C-236 263.8 -253.7 229.4 -272.5 198C-291.4 166.6 -311.5 138.2 -325.4 105.7C-339.3 73.2 -347.1 36.6 -354.9 0L0 0Z" fill="#2b2f32"></path><path d="M0 304.2C-30.6 298.5 -61.3 292.7 -92.5 284.6C-123.7 276.5 -155.4 266.1 -178.8 246.1C-202.3 226.2 -217.4 196.6 -233.6 169.7C-249.8 142.8 -267 118.5 -278.9 90.6C-290.8 62.8 -297.5 31.4 -304.2 0L0 0Z" fill="#323538"></path><path d="M0 253.5C-25.5 248.7 -51.1 243.9 -77.1 237.2C-103 230.4 -129.5 221.7 -149 205.1C-168.5 188.5 -181.2 163.9 -194.7 141.4C-208.1 119 -222.5 98.7 -232.4 75.5C-242.4 52.3 -247.9 26.2 -253.5 0L0 0Z" fill="#3a3c3e"></path><path d="M0 202.8C-20.4 199 -40.9 195.1 -61.6 189.7C-82.4 184.3 -103.6 177.4 -119.2 164.1C-134.8 150.8 -145 131.1 -155.7 113.1C-166.5 95.2 -178 79 -185.9 60.4C-193.9 41.8 -198.4 20.9 -202.8 0L0 0Z" fill="#414344"></path><path d="M0 152.1C-15.3 149.2 -30.6 146.3 -46.2 142.3C-61.8 138.3 -77.7 133 -89.4 123.1C-101.1 113.1 -108.7 98.3 -116.8 84.9C-124.9 71.4 -133.5 59.2 -139.4 45.3C-145.4 31.4 -148.8 15.7 -152.1 0L0 0Z" fill="#49494a"></path><path d="M0 101.4C-10.2 99.5 -20.4 97.6 -30.8 94.9C-41.2 92.2 -51.8 88.7 -59.6 82C-67.4 75.4 -72.5 65.5 -77.9 56.6C-83.3 47.6 -89 39.5 -93 30.2C-96.9 20.9 -99.2 10.5 -101.4 0L0 0Z" fill="#505051"></path><path d="M0 50.7C-5.1 49.7 -10.2 48.8 -15.4 47.4C-20.6 46.1 -25.9 44.3 -29.8 41C-33.7 37.7 -36.2 32.8 -38.9 28.3C-41.6 23.8 -44.5 19.7 -46.5 15.1C-48.5 10.5 -49.6 5.2 -50.7 0L0 0Z" fill="#545454"></path></g><g transform="translate(0, 600)"><path d="M0 -405.6C41.5 -398.8 82.9 -392 123.6 -380.4C164.3 -368.9 204.1 -352.5 238.4 -328.2C272.7 -303.8 301.4 -271.4 325.2 -236.3C349 -201.2 367.8 -163.4 380.4 -123.6C393 -83.8 399.3 -41.9 405.6 0L0 0Z" fill="#24282c"></path><path d="M0 -354.9C36.3 -349 72.6 -343 108.2 -332.9C143.7 -322.7 178.6 -308.5 208.6 -287.1C238.6 -265.8 263.8 -237.5 284.6 -206.8C305.4 -176.1 321.9 -143 332.9 -108.2C343.9 -73.3 349.4 -36.7 354.9 0L0 0Z" fill="#2b2f32"></path><path d="M0 -304.2C31.1 -299.1 62.2 -294 92.7 -285.3C123.2 -276.6 153.1 -264.4 178.8 -246.1C204.5 -227.8 226.1 -203.5 243.9 -177.2C261.8 -150.9 275.9 -122.6 285.3 -92.7C294.7 -62.8 299.5 -31.4 304.2 0L0 0Z" fill="#323538"></path><path d="M0 -253.5C25.9 -249.3 51.8 -245 77.3 -237.8C102.7 -230.5 127.6 -220.3 149 -205.1C170.4 -189.9 188.4 -169.6 203.3 -147.7C218.1 -125.8 229.9 -102.1 237.8 -77.3C245.6 -52.4 249.6 -26.2 253.5 0L0 0Z" fill="#3a3c3e"></path><path d="M0 -202.8C20.7 -199.4 41.5 -196 61.8 -190.2C82.1 -184.4 102.1 -176.3 119.2 -164.1C136.4 -151.9 150.7 -135.7 162.6 -118.1C174.5 -100.6 183.9 -81.7 190.2 -61.8C196.5 -41.9 199.7 -20.9 202.8 0L0 0Z" fill="#414344"></path><path d="M0 -152.1C15.6 -149.6 31.1 -147 46.4 -142.7C61.6 -138.3 76.5 -132.2 89.4 -123.1C102.3 -113.9 113 -101.8 122 -88.6C130.9 -75.5 137.9 -61.3 142.7 -46.4C147.4 -31.4 149.7 -15.7 152.1 0L0 0Z" fill="#49494a"></path><path d="M0 -101.4C10.4 -99.7 20.7 -98 30.9 -95.1C41.1 -92.2 51 -88.1 59.6 -82C68.2 -75.9 75.4 -67.8 81.3 -59.1C87.3 -50.3 92 -40.9 95.1 -30.9C98.2 -20.9 99.8 -10.5 101.4 0L0 0Z" fill="#505051"></path><path d="M0 -50.7C5.2 -49.9 10.4 -49 15.5 -47.6C20.5 -46.1 25.5 -44.1 29.8 -41C34.1 -38 37.7 -33.9 40.7 -29.5C43.6 -25.2 46 -20.4 47.6 -15.5C49.1 -10.5 49.9 -5.2 50.7 0L0 0Z" fill="#545454"></path></g></svg>