<svg xmlns="http://www.w3.org/2000/svg" viewBox="0 0 500 500"><g id="freepik--background-complete--inject-34"><rect x="46.18" y="80.81" width="12.34" height="23.56" transform="translate(-28.1 23.01) rotate(-19.66)" style="fill:#dbdbdb"></rect><path d="M58.78,105.91l-3,1a2.92,2.92,0,0,1-3.74-1.77h0l8.45-3h0A2.91,2.91,0,0,1,58.78,105.91Z" style="fill:#ebebeb"></path><rect x="43.39" y="78.51" width="8.97" height="3.08" transform="translate(-24.14 20.78) rotate(-19.66)" style="fill:#a6a6a6"></rect><rect x="98.75" y="80.33" width="12.34" height="23.56" transform="translate(-10.57 13.65) rotate(-7.09)" style="fill:#dbdbdb"></rect><path d="M108.29,106.51l-3.1.39a2.93,2.93,0,0,1-3.27-2.54h0l8.91-1.11h0A2.92,2.92,0,0,1,108.29,106.51Z" style="fill:#ebebeb"></path><rect x="98.79" y="77.36" width="8.97" height="3.08" transform="translate(-8.95 13.35) rotate(-7.09)" style="fill:#a6a6a6"></rect><rect x="253" y="80.81" width="12.34" height="23.56" transform="translate(472.08 266.99) rotate(-160.34)" style="fill:#dbdbdb"></rect><path d="M252.75,105.91l2.95,1a2.9,2.9,0,0,0,3.73-1.77h0l-8.45-3h0A2.92,2.92,0,0,0,252.75,105.91Z" style="fill:#ebebeb"></path><rect x="259.17" y="78.51" width="8.97" height="3.08" transform="translate(485 244.14) rotate(-160.34)" style="fill:#a6a6a6"></rect><rect x="200.43" y="80.33" width="12.34" height="23.56" transform="translate(400.26 209.02) rotate(-172.91)" style="fill:#dbdbdb"></rect><path d="M203.24,106.51l3.1.39a2.92,2.92,0,0,0,3.26-2.54h0l-8.9-1.11h0A2.92,2.92,0,0,0,203.24,106.51Z" style="fill:#ebebeb"></path><rect x="203.76" y="77.36" width="8.97" height="3.08" transform="translate(405.17 182.89) rotate(-172.91)" style="fill:#a6a6a6"></rect><rect x="149.59" y="80.44" width="12.34" height="23.56" style="fill:#dbdbdb"></rect><path d="M157.33,106.92H154.2a2.92,2.92,0,0,1-2.92-2.92h9A2.92,2.92,0,0,1,157.33,106.92Z" style="fill:#ebebeb"></path><rect x="151.28" y="77.36" width="8.97" height="3.08" style="fill:#a6a6a6"></rect><rect x="59.03" y="117.62" width="194.01" height="224.16" style="fill:#dbdbdb"></rect><rect x="66.24" y="125.79" width="179.6" height="207.83" style="fill:#c7c7c7"></rect></g><g id="freepik--Shelves--inject-34"><rect x="317.38" y="117.62" width="105.34" height="105.34" style="fill:#B8B8B8"></rect><rect x="317.38" y="117.62" width="105.34" height="105.34" style="opacity:0.30000000000000004"></rect><rect x="324.03" y="125.17" width="92.03" height="92.03" style="opacity:0.4"></rect><rect x="337.36" y="194.58" width="65.37" height="5.07" style="fill:#B8B8B8"></rect><g style="opacity:0.30000000000000004"><rect x="337.36" y="194.58" width="65.37" height="5.07"></rect></g><path d="M387.52,194.58H352.57c-9.44,0-7.93-7.56-5.66-15.49s5.62-19.94,14.06-19.94h18.15c8.44,0,11.8,12,14.06,19.94S397,194.58,387.52,194.58Z" style="fill:#B8B8B8"></path><path d="M363.28,163.32a2.9,2.9,0,1,1-2.89-2.9A2.89,2.89,0,0,1,363.28,163.32Z" style="opacity:0.1"></path><path d="M382.6,163.32a2.9,2.9,0,1,1-2.9-2.9A2.89,2.89,0,0,1,382.6,163.32Z" style="opacity:0.1"></path><path d="M362.35,163.32a2,2,0,1,1-2-2A2,2,0,0,1,362.35,163.32Z" style="fill:#263238"></path><path d="M381.67,163.32a2,2,0,1,1-2-2A2,2,0,0,1,381.67,163.32Z" style="fill:#263238"></path><path d="M379.7,163.74a1.1,1.1,0,0,1-1.1-1.1A55.14,55.14,0,0,0,377,152.23c-1.11-4.15-3.17-9.08-6.64-9.08-6.42,0-8.82,16.18-8.82,19.49a1.11,1.11,0,0,1-2.21,0c0-.22,1.35-21.7,11-21.7,9.38,0,10.5,21.48,10.5,21.7A1.11,1.11,0,0,1,379.7,163.74Z" style="fill:#B8B8B8"></path><rect x="361.2" y="236.44" width="105.34" height="105.34" style="fill:#B8B8B8"></rect><rect x="361.2" y="236.44" width="105.34" height="105.34" style="opacity:0.30000000000000004"></rect><rect x="367.85" y="243.99" width="92.03" height="92.03" style="opacity:0.4"></rect><rect x="381.18" y="300.25" width="65.37" height="5.07" style="fill:#B8B8B8"></rect><g style="opacity:0.30000000000000004"><rect x="381.18" y="300.25" width="65.37" height="5.07"></rect></g><polygon points="441.45 300.19 386.28 300.19 388.29 272.91 439.44 272.91 441.45 300.19" style="fill:#455a64"></polygon><polygon points="439.44 272.91 413.87 286.55 388.29 272.91 439.44 272.91" style="fill:#37474f"></polygon><path d="M417.5,291.59h-7.27v-9.33h7.27Zm-5.26-2h3.25v-5.31h-3.25Z" style="fill:#B8B8B8"></path><polygon points="388.29 272.91 389.98 300.19 386.28 300.19 388.29 272.91" style="opacity:0.1"></polygon></g><g id="freepik--Stand--inject-34"><rect x="247.59" y="339.63" width="105.04" height="112" transform="translate(600.23 791.25) rotate(180)" style="fill:#455a64"></rect><rect x="271.56" y="339.63" width="81.11" height="112" transform="translate(624.22 791.25) rotate(180)" style="opacity:0.1"></rect><path d="M270.94,306.19c-.28,1.76,9.88,6.09,14.09,14.63s5.93,16.79,11.63,18.42,29.26-1.5,30.34-3.25-.54-2.91-2.71-3.25a50.93,50.93,0,0,1-11.74-4.49c-.18-.09-.29,0-.44.11-.43.37-1.23,1.32-4.33,1.32a8.81,8.81,0,0,1-6.85-2.9s0,0-.06,0a30.64,30.64,0,0,1-4.68-7.06c-4.21-8.13-10.43-22.49-16.45-26.89C279.74,292.78,272.44,296.37,270.94,306.19Z" style="fill:#B8B8B8"></path><path d="M300.93,326.78a8.81,8.81,0,0,0,6.85,2.9c3.1,0,3.9-.95,4.33-1.32C312.07,327.82,304.87,330.07,300.93,326.78Z" style="fill:#B8B8B8"></path><path d="M271.2,306.53c1,2.21,3.6,9.61,3.6,13.79s.43,19.37.43,19.37h2.3s.43-15.17.43-19.35,3.38-4.79,3.38-4.79C276.32,308.13,271.2,306.53,271.2,306.53Z" style="fill:#263238"></path><rect x="274.93" y="335.71" width="2.84" height="3.98" rx="0.16" transform="translate(552.71 675.4) rotate(180)" style="fill:#263238"></rect><path d="M288.91,329.66c2.08,4.79,4.11,8.55,7.75,9.58,5.71,1.63,29.26-1.51,30.34-3.25s-.54-2.91-2.7-3.25a51.37,51.37,0,0,1-11.76-4.49c-.16-.08-.28,0-.44.1-.42.38-1.21,1.32-4.31,1.32a8.8,8.8,0,0,1-6.86-2.89s0,0-.07,0c-.22-.22-.44-.48-.66-.73Z" style="opacity:0.2"></path><path d="M331.93,306.26c-.91,2-3.2,8.54-3.2,12.26s-.38,21.28-.38,21.28H326.3s-.38-17.55-.38-21.26-3-4.27-3-4.27C327.37,307.68,331.93,306.26,331.93,306.26Z" style="fill:#263238"></path><rect x="326.08" y="336.26" width="2.53" height="3.54" rx="0.16" style="fill:#263238"></rect><path d="M284.4,339.18c.89.6,12.58.66,16.24.6s17.33-.42,19.45-2.35c4.23-3.88.51-8.75,5.47-19.32,2.83-6,6.36-9.74,6.36-12.63s-2.41-5.94-3-6.75-2-5.79-4-6.22a.86.86,0,0,0-.21,0c-4.86-.23-16.53,26.91-20.15,31.48a9.46,9.46,0,0,1-7.49,3.93.94.94,0,0,0-.45.11c-4.1,4.11-11.38,7.52-12.21,8.25A2,2,0,0,0,284.4,339.18Z" style="fill:#B8B8B8"></path><path d="M296.84,328.28c.25.31,12.77,4.53,18.86-.71s6.14-19.4,6.63-22.29a66.82,66.82,0,0,1,2.89-9.95c.59-1.37.34-2.49-.31-2.82a.86.86,0,0,0-.21,0c-4.86-.23-16.53,26.91-20.15,31.48a9.46,9.46,0,0,1-7.49,3.93C296.9,328,296.69,328.11,296.84,328.28Z" style="fill:#B8B8B8"></path><path d="M296.84,328.28c.25.31,12.77,4.53,18.86-.71s6.14-19.4,6.63-22.29a66.82,66.82,0,0,1,2.89-9.95c.59-1.37.34-2.49-.31-2.82a.86.86,0,0,0-.21,0c-4.86-.23-16.53,26.91-20.15,31.48a9.46,9.46,0,0,1-7.49,3.93C296.9,328,296.69,328.11,296.84,328.28Z" style="fill:#fff;opacity:0.6000000000000001"></path></g><g id="freepik--Puff--inject-34"><polygon points="325.78 451.63 320.69 451.63 320.69 436.98 330.87 436.98 325.78 451.63" style="fill:#B8B8B8"></polygon><polygon points="325.78 451.63 320.69 451.63 320.69 436.98 330.87 436.98 325.78 451.63" style="opacity:0.2"></polygon><polygon points="330.87 436.98 328.99 442.38 320.69 443.07 320.69 436.98 330.87 436.98" style="opacity:0.1"></polygon><polygon points="458.86 451.63 463.95 451.63 463.95 436.98 453.77 436.98 458.86 451.63" style="fill:#B8B8B8"></polygon><polygon points="458.86 451.63 463.95 451.63 463.95 436.98 453.77 436.98 458.86 451.63" style="opacity:0.2"></polygon><polygon points="453.77 436.98 455.65 442.38 463.95 443.07 463.95 436.98 453.77 436.98" style="opacity:0.1"></polygon><rect x="314.18" y="360.4" width="155.75" height="78.75" style="fill:#B8B8B8"></rect><path d="M316.37,358.09H338a2.18,2.18,0,0,1,2.18,2.18v1.44a0,0,0,0,1,0,0h-26a0,0,0,0,1,0,0v-1.44A2.18,2.18,0,0,1,316.37,358.09Z" style="fill:#B8B8B8"></path><path d="M342.32,358.09h21.59a2.18,2.18,0,0,1,2.18,2.18v1.44a0,0,0,0,1,0,0h-26a0,0,0,0,1,0,0v-1.44A2.18,2.18,0,0,1,342.32,358.09Z" style="fill:#B8B8B8"></path><path d="M368.28,358.09h21.59a2.18,2.18,0,0,1,2.18,2.18v1.44a0,0,0,0,1,0,0h-26a0,0,0,0,1,0,0v-1.44A2.18,2.18,0,0,1,368.28,358.09Z" style="fill:#B8B8B8"></path><path d="M394.24,358.09h21.59a2.18,2.18,0,0,1,2.18,2.18v1.44a0,0,0,0,1,0,0h-26a0,0,0,0,1,0,0v-1.44A2.18,2.18,0,0,1,394.24,358.09Z" style="fill:#B8B8B8"></path><path d="M420.2,358.09h21.59a2.18,2.18,0,0,1,2.18,2.18v1.44a0,0,0,0,1,0,0H418a0,0,0,0,1,0,0v-1.44A2.18,2.18,0,0,1,420.2,358.09Z" style="fill:#B8B8B8"></path><path d="M446.16,358.09h21.59a2.18,2.18,0,0,1,2.18,2.18v1.44a0,0,0,0,1,0,0H444a0,0,0,0,1,0,0v-1.44A2.18,2.18,0,0,1,446.16,358.09Z" style="fill:#B8B8B8"></path><path d="M446.16,437.35h21.59a2.18,2.18,0,0,1,2.18,2.18V441a0,0,0,0,1,0,0H444a0,0,0,0,1,0,0v-1.44A2.18,2.18,0,0,1,446.16,437.35Z" transform="translate(913.9 878.32) rotate(180)" style="fill:#B8B8B8"></path><path d="M420.2,437.35h21.59a2.18,2.18,0,0,1,2.18,2.18V441a0,0,0,0,1,0,0H418a0,0,0,0,1,0,0v-1.44A2.18,2.18,0,0,1,420.2,437.35Z" transform="translate(861.99 878.32) rotate(180)" style="fill:#B8B8B8"></path><path d="M394.24,437.35h21.59a2.18,2.18,0,0,1,2.18,2.18V441a0,0,0,0,1,0,0h-26a0,0,0,0,1,0,0v-1.44A2.18,2.18,0,0,1,394.24,437.35Z" transform="translate(810.07 878.32) rotate(180)" style="fill:#B8B8B8"></path><path d="M368.28,437.35h21.59a2.18,2.18,0,0,1,2.18,2.18V441a0,0,0,0,1,0,0h-26a0,0,0,0,1,0,0v-1.44A2.18,2.18,0,0,1,368.28,437.35Z" transform="translate(758.15 878.32) rotate(180)" style="fill:#B8B8B8"></path><path d="M342.32,437.35h21.59a2.18,2.18,0,0,1,2.18,2.18V441a0,0,0,0,1,0,0h-26a0,0,0,0,1,0,0v-1.44A2.18,2.18,0,0,1,342.32,437.35Z" transform="translate(706.24 878.32) rotate(180)" style="fill:#B8B8B8"></path><path d="M316.37,437.35H338a2.18,2.18,0,0,1,2.18,2.18V441a0,0,0,0,1,0,0h-26a0,0,0,0,1,0,0v-1.44A2.18,2.18,0,0,1,316.37,437.35Z" transform="translate(654.32 878.32) rotate(180)" style="fill:#B8B8B8"></path><path d="M303.12,424.37h21.59a2.18,2.18,0,0,1,2.18,2.18V428a0,0,0,0,1,0,0h-26a0,0,0,0,1,0,0v-1.44A2.18,2.18,0,0,1,303.12,424.37Z" transform="translate(-112.26 740.1) rotate(-90)" style="fill:#B8B8B8"></path><path d="M303.12,398.41h21.59a2.18,2.18,0,0,1,2.18,2.18V402a0,0,0,0,1,0,0h-26a0,0,0,0,1,0,0v-1.44A2.18,2.18,0,0,1,303.12,398.41Z" transform="translate(-86.3 714.14) rotate(-90)" style="fill:#B8B8B8"></path><path d="M303.12,372.45h21.59a2.18,2.18,0,0,1,2.18,2.18v1.44a0,0,0,0,1,0,0h-26a0,0,0,0,1,0,0v-1.44A2.18,2.18,0,0,1,303.12,372.45Z" transform="translate(-60.35 688.18) rotate(-90)" style="fill:#B8B8B8"></path><path d="M459.93,372.45h21.59a2.18,2.18,0,0,1,2.18,2.18v1.44a0,0,0,0,1,0,0h-26a0,0,0,0,1,0,0v-1.44A2.18,2.18,0,0,1,459.93,372.45Z" transform="translate(844.99 -96.46) rotate(90)" style="fill:#B8B8B8"></path><path d="M459.93,398.41h21.59a2.18,2.18,0,0,1,2.18,2.18V402a0,0,0,0,1,0,0h-26a0,0,0,0,1,0,0v-1.44A2.18,2.18,0,0,1,459.93,398.41Z" transform="translate(870.94 -70.5) rotate(90)" style="fill:#B8B8B8"></path><path d="M459.93,424.37h21.59a2.18,2.18,0,0,1,2.18,2.18V428a0,0,0,0,1,0,0h-26a0,0,0,0,1,0,0v-1.44A2.18,2.18,0,0,1,459.93,424.37Z" transform="translate(896.9 -44.54) rotate(90)" style="fill:#B8B8B8"></path><g style="opacity:0.30000000000000004"><rect x="314.18" y="360.4" width="155.75" height="78.75" style="fill:#fff"></rect><path d="M316.37,358.09H338a2.18,2.18,0,0,1,2.18,2.18v1.44a0,0,0,0,1,0,0h-26a0,0,0,0,1,0,0v-1.44A2.18,2.18,0,0,1,316.37,358.09Z" style="fill:#fff"></path><path d="M342.32,358.09h21.59a2.18,2.18,0,0,1,2.18,2.18v1.44a0,0,0,0,1,0,0h-26a0,0,0,0,1,0,0v-1.44A2.18,2.18,0,0,1,342.32,358.09Z" style="fill:#fff"></path><path d="M368.28,358.09h21.59a2.18,2.18,0,0,1,2.18,2.18v1.44a0,0,0,0,1,0,0h-26a0,0,0,0,1,0,0v-1.44A2.18,2.18,0,0,1,368.28,358.09Z" style="fill:#fff"></path><path d="M394.24,358.09h21.59a2.18,2.18,0,0,1,2.18,2.18v1.44a0,0,0,0,1,0,0h-26a0,0,0,0,1,0,0v-1.44A2.18,2.18,0,0,1,394.24,358.09Z" style="fill:#fff"></path><path d="M420.2,358.09h21.59a2.18,2.18,0,0,1,2.18,2.18v1.44a0,0,0,0,1,0,0H418a0,0,0,0,1,0,0v-1.44A2.18,2.18,0,0,1,420.2,358.09Z" style="fill:#fff"></path><path d="M446.16,358.09h21.59a2.18,2.18,0,0,1,2.18,2.18v1.44a0,0,0,0,1,0,0H444a0,0,0,0,1,0,0v-1.44A2.18,2.18,0,0,1,446.16,358.09Z" style="fill:#fff"></path><path d="M446.16,437.35h21.59a2.18,2.18,0,0,1,2.18,2.18V441a0,0,0,0,1,0,0H444a0,0,0,0,1,0,0v-1.44A2.18,2.18,0,0,1,446.16,437.35Z" transform="translate(913.9 878.32) rotate(180)" style="fill:#fff"></path><path d="M420.2,437.35h21.59a2.18,2.18,0,0,1,2.18,2.18V441a0,0,0,0,1,0,0H418a0,0,0,0,1,0,0v-1.44A2.18,2.18,0,0,1,420.2,437.35Z" transform="translate(861.99 878.32) rotate(180)" style="fill:#fff"></path><path d="M394.24,437.35h21.59a2.18,2.18,0,0,1,2.18,2.18V441a0,0,0,0,1,0,0h-26a0,0,0,0,1,0,0v-1.44A2.18,2.18,0,0,1,394.24,437.35Z" transform="translate(810.07 878.32) rotate(180)" style="fill:#fff"></path><path d="M368.28,437.35h21.59a2.18,2.18,0,0,1,2.18,2.18V441a0,0,0,0,1,0,0h-26a0,0,0,0,1,0,0v-1.44A2.18,2.18,0,0,1,368.28,437.35Z" transform="translate(758.15 878.32) rotate(180)" style="fill:#fff"></path><path d="M342.32,437.35h21.59a2.18,2.18,0,0,1,2.18,2.18V441a0,0,0,0,1,0,0h-26a0,0,0,0,1,0,0v-1.44A2.18,2.18,0,0,1,342.32,437.35Z" transform="translate(706.24 878.32) rotate(180)" style="fill:#fff"></path><path d="M316.37,437.35H338a2.18,2.18,0,0,1,2.18,2.18V441a0,0,0,0,1,0,0h-26a0,0,0,0,1,0,0v-1.44A2.18,2.18,0,0,1,316.37,437.35Z" transform="translate(654.32 878.32) rotate(180)" style="fill:#fff"></path><path d="M303.12,424.37h21.59a2.18,2.18,0,0,1,2.18,2.18V428a0,0,0,0,1,0,0h-26a0,0,0,0,1,0,0v-1.44A2.18,2.18,0,0,1,303.12,424.37Z" transform="translate(-112.26 740.1) rotate(-90)" style="fill:#fff"></path><path d="M303.12,398.41h21.59a2.18,2.18,0,0,1,2.18,2.18V402a0,0,0,0,1,0,0h-26a0,0,0,0,1,0,0v-1.44A2.18,2.18,0,0,1,303.12,398.41Z" transform="translate(-86.3 714.14) rotate(-90)" style="fill:#fff"></path><path d="M303.12,372.45h21.59a2.18,2.18,0,0,1,2.18,2.18v1.44a0,0,0,0,1,0,0h-26a0,0,0,0,1,0,0v-1.44A2.18,2.18,0,0,1,303.12,372.45Z" transform="translate(-60.35 688.18) rotate(-90)" style="fill:#fff"></path><path d="M459.93,372.45h21.59a2.18,2.18,0,0,1,2.18,2.18v1.44a0,0,0,0,1,0,0h-26a0,0,0,0,1,0,0v-1.44A2.18,2.18,0,0,1,459.93,372.45Z" transform="translate(844.99 -96.46) rotate(90)" style="fill:#fff"></path><path d="M459.93,398.41h21.59a2.18,2.18,0,0,1,2.18,2.18V402a0,0,0,0,1,0,0h-26a0,0,0,0,1,0,0v-1.44A2.18,2.18,0,0,1,459.93,398.41Z" transform="translate(870.94 -70.5) rotate(90)" style="fill:#fff"></path><path d="M459.93,424.37h21.59a2.18,2.18,0,0,1,2.18,2.18V428a0,0,0,0,1,0,0h-26a0,0,0,0,1,0,0v-1.44A2.18,2.18,0,0,1,459.93,424.37Z" transform="translate(896.9 -44.54) rotate(90)" style="fill:#fff"></path></g><g style="opacity:0.1"><circle cx="340.14" cy="387.24" r="1.97"></circle><path d="M340.14,387a43.36,43.36,0,0,1-13.69,0,43.06,43.06,0,0,1,13.69,0Z"></path><path d="M340.14,387a43.36,43.36,0,0,1,0-13.69,43.36,43.36,0,0,1,0,13.69Z"></path><path d="M340.14,387a43.06,43.06,0,0,1,13.69,0,43.36,43.36,0,0,1-13.69,0Z"></path><path d="M340.14,387a43.36,43.36,0,0,1,0,13.69,43.36,43.36,0,0,1,0-13.69Z"></path><path d="M342.11,413.41a2,2,0,1,1-2-2A2,2,0,0,1,342.11,413.41Z"></path><path d="M340.14,413.2a43.36,43.36,0,0,1-13.69,0,43.36,43.36,0,0,1,13.69,0Z"></path><path d="M340.14,413.2a43.36,43.36,0,0,1,0-13.69,43.36,43.36,0,0,1,0,13.69Z"></path><path d="M340.14,413.2a43.36,43.36,0,0,1,13.69,0,43.36,43.36,0,0,1-13.69,0Z"></path><path d="M340.14,413.2a43.36,43.36,0,0,1,0,13.69,43.36,43.36,0,0,1,0-13.69Z"></path><circle cx="366.1" cy="387.24" r="1.97"></circle><path d="M366.1,387a43.36,43.36,0,0,1-13.69,0,43.06,43.06,0,0,1,13.69,0Z"></path><path d="M366.1,387a43.06,43.06,0,0,1,0-13.69,43.36,43.36,0,0,1,0,13.69Z"></path><path d="M366.1,387a43.06,43.06,0,0,1,13.69,0,43.36,43.36,0,0,1-13.69,0Z"></path><path d="M366.1,387a43.36,43.36,0,0,1,0,13.69,43.06,43.06,0,0,1,0-13.69Z"></path><path d="M368.07,413.41a2,2,0,1,1-2-2A2,2,0,0,1,368.07,413.41Z"></path><path d="M366.1,413.2a43.36,43.36,0,0,1-13.69,0,43.36,43.36,0,0,1,13.69,0Z"></path><path d="M366.1,413.2a43.06,43.06,0,0,1,0-13.69,43.36,43.36,0,0,1,0,13.69Z"></path><path d="M366.1,413.2a43.36,43.36,0,0,1,13.69,0,43.36,43.36,0,0,1-13.69,0Z"></path><path d="M366.1,413.2a43.36,43.36,0,0,1,0,13.69,43.06,43.06,0,0,1,0-13.69Z"></path><circle cx="392.06" cy="387.24" r="1.97"></circle><path d="M392.06,387a43.36,43.36,0,0,1-13.69,0,43.06,43.06,0,0,1,13.69,0Z"></path><path d="M392.06,387a43.06,43.06,0,0,1,0-13.69,43.65,43.65,0,0,1,0,13.69Z"></path><path d="M392.06,387a43,43,0,0,1,13.68,0,43.29,43.29,0,0,1-13.68,0Z"></path><path d="M392.06,387a43.65,43.65,0,0,1,0,13.69,43.06,43.06,0,0,1,0-13.69Z"></path><path d="M394,413.41a2,2,0,1,1-2-2A2,2,0,0,1,394,413.41Z"></path><path d="M392.06,413.2a43.36,43.36,0,0,1-13.69,0,43.36,43.36,0,0,1,13.69,0Z"></path><path d="M392.06,413.2a43.06,43.06,0,0,1,0-13.69,43.65,43.65,0,0,1,0,13.69Z"></path><path d="M392.06,413.2a43.29,43.29,0,0,1,13.68,0,43.29,43.29,0,0,1-13.68,0Z"></path><path d="M392.06,413.2a43.65,43.65,0,0,1,0,13.69,43.06,43.06,0,0,1,0-13.69Z"></path><path d="M420,387.24a2,2,0,1,1-2-2A2,2,0,0,1,420,387.24Z"></path><path d="M418,387a43.36,43.36,0,0,1-13.69,0A43.06,43.06,0,0,1,418,387Z"></path><path d="M418,387a43.65,43.65,0,0,1,0-13.69A43.06,43.06,0,0,1,418,387Z"></path><path d="M418,387a43.06,43.06,0,0,1,13.69,0A43.36,43.36,0,0,1,418,387Z"></path><path d="M418,387a43.06,43.06,0,0,1,0,13.69A43.65,43.65,0,0,1,418,387Z"></path><path d="M420,413.41a2,2,0,1,1-2-2A2,2,0,0,1,420,413.41Z"></path><path d="M418,413.2a43.36,43.36,0,0,1-13.69,0,43.36,43.36,0,0,1,13.69,0Z"></path><path d="M418,413.2a43.65,43.65,0,0,1,0-13.69,43.06,43.06,0,0,1,0,13.69Z"></path><path d="M418,413.2a43.36,43.36,0,0,1,13.69,0,43.36,43.36,0,0,1-13.69,0Z"></path><path d="M418,413.2a43.06,43.06,0,0,1,0,13.69,43.65,43.65,0,0,1,0-13.69Z"></path><path d="M445.94,387.24a2,2,0,1,1-2-2A2,2,0,0,1,445.94,387.24Z"></path><path d="M444,387a43.36,43.36,0,0,1-13.69,0A43.06,43.06,0,0,1,444,387Z"></path><path d="M444,387a43.36,43.36,0,0,1,0-13.69A43.36,43.36,0,0,1,444,387Z"></path><path d="M444,387a43.06,43.06,0,0,1,13.69,0A43.36,43.36,0,0,1,444,387Z"></path><path d="M444,387a43.36,43.36,0,0,1,0,13.69A43.36,43.36,0,0,1,444,387Z"></path><path d="M445.94,413.41a2,2,0,1,1-2-2A2,2,0,0,1,445.94,413.41Z"></path><path d="M444,413.2a43.36,43.36,0,0,1-13.69,0,43.36,43.36,0,0,1,13.69,0Z"></path><path d="M444,413.2a43.36,43.36,0,0,1,0-13.69,43.36,43.36,0,0,1,0,13.69Z"></path><path d="M444,413.2a43.36,43.36,0,0,1,13.69,0,43.36,43.36,0,0,1-13.69,0Z"></path><path d="M444,413.2a43.36,43.36,0,0,1,0,13.69,43.36,43.36,0,0,1,0-13.69Z"></path></g></g><g id="freepik--Floor--inject-34"><path d="M20.77,471.62c146.86-.61,311.6-.61,458.46,0-146.86.62-311.6.62-458.46,0Z" style="fill:#263238"></path><path d="M20.77,451.62c146.86-.61,311.6-.61,458.46,0-146.86.62-311.6.62-458.46,0Z" style="fill:#263238"></path></g><g id="freepik--Mannequins--inject-34"><rect x="94.32" y="247.46" width="4.72" height="210.16" style="fill:#a6a6a6"></rect><polygon points="130.57 463.33 62.78 463.33 70.71 457.62 122.64 457.62 130.57 463.33" style="fill:#a6a6a6"></polygon><path d="M130.46,291.83H62.87a136.28,136.28,0,0,1,3.95-29.28c2.49-10.1,9-20.9,9-26.87s-8.48-33.76-9.41-36.37-3.92-19-3.55-20.69S85.1,171.9,87,168.54s1.87-14.93,1.87-14.93H104.5s0,11.56,1.86,14.93,23.7,8.4,24.07,10.08-2.61,18.09-3.55,20.69-9.48,30.41-9.41,36.37,6.55,16.77,9,26.87A136.28,136.28,0,0,1,130.46,291.83Z" style="fill:#fff"></path><path d="M130.46,291.83,62.73,292a137.94,137.94,0,0,1,4-29.51c2-8,6.06-15.31,8.4-23.21,1.49-4.82-.5-9.72-1.48-14.46-1.61-6.38-3.44-12.71-5.35-19l-1.46-4.71c-1.6-4.69-2.3-9.64-3.19-14.5-.34-2.68-1.07-5.36-.89-8.07.36-.63,1.1-.79,1.68-1.1,6.9-2.78,14.23-4.27,20.81-7.68,2.38-1.14,2.37-4,2.8-6.27a86.47,86.47,0,0,0,.61-10.05h16.1v.21c.18,4.84,0,10,1.71,14.56.71,1.41,2.53,2,3.88,2.67,6.38,2.84,13.37,4.22,19.75,7.17.19.14.4.23.52.5a12.79,12.79,0,0,1-.16,3.15c-1,6.5-1.9,13.11-3.93,19.38L125,205.76c-1.9,6.3-3.73,12.63-5.35,19-1,4.74-3,9.66-1.48,14.48,2.34,7.9,6.42,15.2,8.37,23.23a138.32,138.32,0,0,1,3.9,29.34Zm0,0a138.69,138.69,0,0,0-4-29.31c-2-8-6.12-15.29-8.47-23.19-1.52-4.84.47-9.87,1.45-14.62,1.61-6.4,3.42-12.73,5.32-19,.48-1.62,1.71-5.52,2.21-7.08,1-4,1.7-8,2.4-12.09a72.52,72.52,0,0,0,.94-7.32c0-.28.08-.54-.19-.7-6.32-3.11-13.46-4.36-19.94-7.28a15.24,15.24,0,0,1-3.28-1.82c-1.56-1.47-1.6-3.93-2-5.88a85.93,85.93,0,0,1-.6-9.89l.22.22H88.83l.23-.23a83.74,83.74,0,0,1-.59,9.89c-.37,1.95-.41,4.44-2,5.91-6.67,4.18-14.77,5.43-21.92,8.42a4.21,4.21,0,0,0-1.43.82,2.08,2.08,0,0,0,0,.53,146.64,146.64,0,0,0,2.77,17c.52,2.79,2,6.68,2.78,9.46q1.43,4.72,2.77,9.49c.89,3.17,1.76,6.35,2.55,9.55,1,4.76,3,9.81,1.46,14.66-2.35,7.9-6.47,15.17-8.45,23.19a138.6,138.6,0,0,0-4,29.29c-.89-.22,67.65,0,67.45,0Z" style="fill:#263238"></path><path d="M104.67,158.75a18,18,0,0,1-8,1.84,15.46,15.46,0,0,1-8-2c.15-2.74.15-4.93.15-4.93H104.5S104.5,155.91,104.67,158.75Z" style="fill:#dbdbdb"></path><path d="M112.89,132.13c0,13-6,25.45-16.22,25.45s-16.24-12.45-16.24-25.45c0-10.77,8.69-19.17,16.24-19.17S112.89,121.36,112.89,132.13Z" style="fill:#fff"></path><path d="M112.89,132.13c-.07,7.5-1.74,15.54-6.9,21.26a12.45,12.45,0,0,1-14,3.38c-4.81-2-7.81-6.74-9.57-11.46a36.87,36.87,0,0,1-2.13-15.05c.72-7.59,6-14.93,13.48-17,10.56-2.31,19.31,9.14,19.1,18.91Zm0,0c0-7.59-4.62-15.13-11.66-18.11-7.38-3.23-15.24,2.54-18.43,9.08a20.75,20.75,0,0,0-2.07,11,38.49,38.49,0,0,0,2.12,11.09c1.69,4.64,4.59,9.31,9.28,11.33a12.2,12.2,0,0,0,13.72-3.23c5.18-5.65,6.91-13.65,7-21.13Z" style="fill:#263238"></path><polygon points="97.22 272.19 92.66 434.33 77.66 434.33 68.76 272.19 97.22 272.19" style="fill:#263238"></polygon><polygon points="96.13 272.19 100.69 434.33 115.68 434.33 124.58 272.19 96.13 272.19" style="fill:#263238"></polygon><path d="M131.19,177.6a10.62,10.62,0,0,1,1.83-.45c.25,0,1.61.84,1.71,1.43s7,118.41,7,118.41H125l-3.7-96.61Z" style="fill:#37474f"></path><path d="M121.3,200.37,125,297h5.74l4.91-103.2v-.05c-.55-9.11-.9-15-.92-15.15-.1-.58-1.46-1.39-1.72-1.43a10.81,10.81,0,0,0-1.82.44Z" style="opacity:0.1"></path><path d="M105.51,166.05c0,3.16,2.45,8.5,1.61,13.63s-10.46,52.13-10.46,52.13v69.35c0,2,6.61,10.78,10.21,10.78s22.26-6.66,22.63-7-8.44-60.94-8.25-62.72,6.56-33.94,6.94-37.31,3.19-26.91,3-27.28-16.6-5.25-17.91-5.44S105.51,166.05,105.51,166.05Z" style="fill:#37474f"></path><polygon points="123.45 256.66 108.69 253.18 110.13 262.78 125.07 266.33 123.45 256.66" style="fill:#263238"></polygon><path d="M105.51,166.05c.56,0,17.47,16.65,17.43,16.84s-8,2.53-8,2.53,12.91-3.28,13.19-2.86-5.29,14.86-6.79,17.82c-3.61,7.12-24.64,33.34-24.64,33.34v-1.91l10.27-53.23Z" style="fill:#263238"></path><path d="M62.15,177.6a10.72,10.72,0,0,0-1.82-.45c-.26,0-1.62.84-1.71,1.43s-7,118.41-7,118.41H68.34l3.71-96.61Z" style="fill:#37474f"></path><path d="M72,200.37,68.35,297H62.6l-4.91-103.2v-.05c.55-9.11.9-15,.92-15.15.1-.58,1.46-1.39,1.72-1.43a10.58,10.58,0,0,1,1.82.44Z" style="opacity:0.1"></path><path d="M87.84,166.05c0,3.16-2.46,8.5-1.62,13.63s12.24,60.21,12.24,60.21-1.78,59.3-1.78,61.27-6.61,10.78-10.21,10.78-22.25-6.66-22.63-7,8.44-60.94,8.25-62.72-6.56-33.94-6.94-37.31S62,178,62.15,177.6s16.6-5.25,17.91-5.44S87.84,166.05,87.84,166.05Z" style="fill:#37474f"></path><polygon points="69.89 256.66 84.66 253.18 83.21 262.78 68.27 266.33 69.89 256.66" style="fill:#263238"></polygon><path d="M87.84,166.05c-.57,0-17.48,16.65-17.44,16.84s8,2.53,8,2.53-12.91-3.28-13.19-2.86,5.3,14.86,6.8,17.82c3.6,7.12,26.37,41,26.37,41l0-1.49-12-61.31Z" style="fill:#263238"></path><path d="M96.45,245.33a2.13,2.13,0,1,1-2.13-2.13A2.13,2.13,0,0,1,96.45,245.33Z" style="fill:#263238"></path><path d="M95.24,266.33a2.13,2.13,0,1,1-2.13-2.13A2.14,2.14,0,0,1,95.24,266.33Z" style="fill:#263238"></path><path d="M96.68,301.16c.08-19.78.71-41.52,1.78-61.27-.08,19.78-.71,41.52-1.78,61.27Z" style="fill:#263238"></path><rect x="222.76" y="247.46" width="4.72" height="210.16" style="fill:#a6a6a6"></rect><polygon points="259.01 463.33 191.22 463.33 199.15 457.62 251.09 457.62 259.01 463.33" style="fill:#a6a6a6"></polygon><path d="M258.91,288.64H191.32a136,136,0,0,1,4-29.28c2.49-10.09,8.95-20.89,9-26.87s-8.48-33.75-9.4-36.36-3.92-19-3.55-20.7,22.19-6.71,24.06-10.08,1.87-14.92,1.87-14.92H233s0,11.56,1.87,14.92,23.69,8.4,24.06,10.08-2.61,18.09-3.55,20.7-9.47,30.41-9.41,36.36,6.55,16.78,9,26.87A136.28,136.28,0,0,1,258.91,288.64Z" style="fill:#fff"></path><path d="M258.91,288.64l-67.73.14a139,139,0,0,1,3.95-29.5c2-8,6.07-15.32,8.41-23.22,1.48-4.81-.51-9.71-1.48-14.46-1.62-6.38-3.45-12.71-5.35-19l-1.46-4.72c-1.61-4.68-2.31-9.64-3.19-14.49-.35-2.68-1.08-5.37-.9-8.08.36-.62,1.1-.79,1.68-1.1,6.9-2.78,14.23-4.27,20.81-7.68,2.38-1.14,2.38-4,2.81-6.26a84.48,84.48,0,0,0,.6-10.06h16.1v.22c.17,4.83,0,10,1.7,14.56.71,1.41,2.53,2,3.88,2.66,6.38,2.85,13.37,4.22,19.75,7.17.2.15.4.23.52.5a11.87,11.87,0,0,1-.16,3.15c-1,6.51-1.89,13.11-3.92,19.38l-1.47,4.72c-1.9,6.31-3.73,12.64-5.35,19-1,4.75-3,9.67-1.47,14.49C249,244,253.07,251.27,255,259.3a139,139,0,0,1,3.89,29.34Zm0,0a138.12,138.12,0,0,0-4-29.31c-2-8-6.13-15.28-8.48-23.18-1.52-4.85.48-9.87,1.45-14.63,1.61-6.39,3.43-12.73,5.32-19,.49-1.62,1.71-5.51,2.21-7.07,1-4,1.71-8,2.4-12.1a72.55,72.55,0,0,0,1-7.32c-.05-.27.07-.54-.19-.7-6.32-3.1-13.47-4.35-20-7.27a15.28,15.28,0,0,1-3.28-1.83c-1.55-1.46-1.59-3.92-2-5.87a84,84,0,0,1-.6-9.89l.21.21-15.66,0,.22-.23a86.18,86.18,0,0,1-.58,9.89c-.38,2-.41,4.44-2,5.91-6.67,4.18-14.76,5.43-21.92,8.41a4.4,4.4,0,0,0-1.43.83,3.67,3.67,0,0,0,0,.52,146.32,146.32,0,0,0,2.78,17c.51,2.79,2,6.69,2.78,9.46q1.42,4.74,2.76,9.5c.89,3.17,1.76,6.35,2.56,9.55,1,4.76,3,9.8,1.45,14.65-2.35,7.9-6.47,15.18-8.44,23.2a137.79,137.79,0,0,0-4,29.28c-.88-.22,67.66,0,67.45,0Z" style="fill:#263238"></path><path d="M233.12,155.57a18.12,18.12,0,0,1-8,1.83,15.4,15.4,0,0,1-8-2c.15-2.74.15-4.93.15-4.93H233S233,152.72,233.12,155.57Z" style="fill:#dbdbdb"></path><path d="M241.35,128.94c0,13-6,25.46-16.22,25.46S208.89,142,208.89,128.94c0-10.77,8.68-19.16,16.24-19.16S241.35,118.17,241.35,128.94Z" style="fill:#fff"></path><path d="M241.35,128.94c-.08,7.5-1.75,15.54-6.91,21.27a12.44,12.44,0,0,1-14,3.38c-4.81-2-7.8-6.75-9.56-11.46a36.78,36.78,0,0,1-2.14-15.06c.73-7.59,6-14.92,13.48-17,10.56-2.31,19.32,9.14,19.11,18.91Zm0,0c0-7.59-4.62-15.13-11.67-18.1-7.38-3.24-15.23,2.53-18.43,9.07a20.88,20.88,0,0,0-2.07,11,38.5,38.5,0,0,0,2.13,11.1c1.68,4.64,4.58,9.31,9.27,11.32a12.18,12.18,0,0,0,13.72-3.22c5.19-5.66,6.91-13.65,7-21.14Z" style="fill:#263238"></path><path d="M255,199.63s-3.12,15.22-5.82,20.82l-2.58,9.1h-43l-2.58-9.1c-2.71-5.6-5.82-20.82-5.82-20.82s5.41-10.81,14.82-11a21,21,0,0,1,15.08,6h0a21,21,0,0,1,15.09-6C249.62,188.82,255,199.63,255,199.63Z" style="fill:#B8B8B8"></path><path d="M260.34,268.4c0,9.89-8.73,124.08-8.73,124.08h-53s-8.74-114.19-8.74-124.08c0-11.7,13.69-38.85,13.69-38.85h43S260.34,256.7,260.34,268.4Z" style="fill:#B8B8B8"></path><path d="M260.34,268.4c0,9.89-8.73,124.08-8.73,124.08h-53s-8.74-114.19-8.74-124.08c0-11.7,13.69-38.85,13.69-38.85h43S260.34,256.7,260.34,268.4Z" style="opacity:0.30000000000000004"></path><g style="opacity:0.1"><path d="M225.13,229.55c.31,52.19.31,110.74,0,162.93-.31-52.19-.31-110.74,0-162.93Z"></path><path d="M221.11,229.55c-.34,12.13-1.36,28.78-1.1,40.71l.51,40.74c.18,23,.53,58.69.59,81.48-.41-22.7-.79-58.51-1.09-81.48l-.34-40.74c-.25-11.89.92-28.7,1.43-40.71Z"></path><path d="M216.91,229.55c-1.24,13.51-3.35,27-3.1,40.62.54,37.66,2.08,84.45,3.1,122.31l-.81-20.38c-1-31.58-2.43-70.48-2.62-101.93-.22-13.61,2-27.12,3.43-40.62Z"></path><path d="M212.86,229.55c-1.19,6.7-2.32,13.42-3.33,20.15s-2.18,13.47-1.74,20.3c.82,39.35,3.23,82.94,5.07,122.48l-1.22-20.4c-1.77-33.82-3.73-68.26-4.18-102.08-.32-6.75.76-13.71,1.83-20.33s2.3-13.43,3.57-20.12Z"></path><path d="M208.46,229.55c-1.58,6.64-3.09,13.3-4.47,20-1.06,5.42-2.34,10.86-2.64,16.39.44,28.59,2.54,57.13,4.3,85.67l2.81,40.88-1.65-20.43c-2.46-34.73-5.31-70.06-5.76-104.84a39.38,39.38,0,0,1,.74-7.66c1.76-10.1,4.21-20.06,6.67-30Z"></path><path d="M203.66,229.55c-1.79,6.6-3.5,13.23-5.06,19.88-1.21,5.4-2.66,10.82-3,16.35.45,28.63,2.87,57.21,4.88,85.78l3.21,40.92L201.8,372c-2.79-34.77-6-70.13-6.54-105a36.56,36.56,0,0,1,.87-7.66c2-10.07,4.76-20,7.53-29.85Z"></path><path d="M229.14,229.55c.51,12.13,1.67,28.77,1.43,40.71L230.23,311c-.3,23-.68,58.69-1.09,81.48.06-22.7.41-58.51.59-81.48l.5-40.74c.27-11.88-.76-28.69-1.09-40.71Z"></path><path d="M233.33,229.55c1.44,13.5,3.66,27,3.44,40.62-.19,31.41-1.58,70.4-2.63,101.93l-.81,20.38c1-37.94,2.57-84.58,3.11-122.31.24-13.59-1.86-27.11-3.11-40.62Z"></path><path d="M237.38,229.55c1.27,6.69,2.49,13.39,3.58,20.12s2.15,13.58,1.83,20.33c-.46,33.81-2.42,68.28-4.18,102.08l-1.23,20.4c1.85-39.63,4.26-83.06,5.08-122.48.44-6.83-.76-13.56-1.74-20.3s-2.15-13.45-3.34-20.15Z"></path><path d="M241.79,229.55c2.46,9.94,4.91,19.9,6.67,30a40.17,40.17,0,0,1,.74,7.66c-.45,34.77-3.3,70.13-5.76,104.84l-1.65,20.43,2.81-40.88c1.75-28.54,3.86-57.08,4.29-85.67-.29-5.53-1.57-11-2.64-16.39-1.37-6.69-2.88-13.35-4.46-20Z"></path><path d="M246.59,229.55c2.76,9.88,5.53,19.78,7.53,29.85a36.56,36.56,0,0,1,.87,7.66c-.52,34.83-3.76,70.22-6.54,105l-1.86,20.44,3.21-40.92c2-28.57,4.42-57.15,4.87-85.78-.36-5.54-1.81-10.95-3-16.35-1.56-6.65-3.27-13.28-5.06-19.88Z"></path></g><g style="opacity:0.30000000000000004"><path d="M229.72,210.25a56.34,56.34,0,0,0-8.14,1.51c-1.32.37-2.62.79-3.91,1.25q-1,.33-1.95.63a8.82,8.82,0,0,1-2.1.44c-.06,0-.06.1,0,.1a15.16,15.16,0,0,0,2-.08,14.06,14.06,0,0,0,1.93-.4c1.34-.36,2.67-.79,4-1.16,2.71-.75,5.42-1.5,8.17-2.06C229.89,210.45,229.85,210.24,229.72,210.25Z"></path><path d="M236.57,212.55a62.25,62.25,0,0,0-6.83-.19c-1.14,0-2.27.14-3.4.27l-1.62.22c-.59.09-1.17.25-1.77.33-.06,0-.06.11,0,.1.56-.06,1.13,0,1.7-.05l1.7-.08c1.13-.05,2.27-.08,3.4-.14,2.28-.13,4.54-.23,6.81-.27A.1.1,0,0,0,236.57,212.55Z"></path></g><path d="M212,166.88s3.66-5.31,4-5.6,9.48,7.5,9.48,7.79.24,2.51,0,2.76S212.09,167.58,212,166.88Z" style="fill:#263238"></path><path d="M234,160.5a19.55,19.55,0,0,1,2.31,4.88c-.08.39-10.4,6.88-10.83,6.45a3.44,3.44,0,0,1,0-2.76C225.81,168.74,233.26,160.25,234,160.5Z" style="fill:#263238"></path><path d="M223.57,168.35a7.34,7.34,0,0,1,3.57,0c.19.1-.08,3.66-.44,3.74s-2.47.2-2.74-.1S222.88,168.88,223.57,168.35Z" style="fill:#263238"></path><path d="M223.81,170.45s-8.05,27.75-8.05,28.25,1.93,1,2.26,1.34-1.17,4.28-.25,4.78,5.57,2.64,6.62,2.6,4.86-3.28,5.22-3.52-.78-9.89-.44-10.06,1.68-.76,1.68-1.26-4.7-21.79-4.7-21.79Z" style="fill:#263238"></path><path d="M224.32,169.81s-1.27,25.51-1.17,25.94,1.87.48,2.22.7-.13,3.91.76,4.16,5.34,1.14,6.23.88,3.51-3.81,3.77-4.09-2.68-8.35-2.43-8.56,1.29-1,1.19-1.42-8.48-17.79-8.48-17.79Z" style="fill:#263238"></path></g><g id="freepik--Window--inject-34"><rect x="295.79" y="70.84" width="8.3" height="400.79" style="fill:#263238"></rect><rect x="245.85" y="-159.27" width="8.3" height="468.52" transform="translate(324.99 -175.01) rotate(90)" style="fill:#263238"></rect><rect x="151.61" y="327.45" width="8.3" height="280.04" transform="translate(623.24 311.71) rotate(90)" style="fill:#263238"></rect><g style="opacity:0.1"><polygon points="237.06 79.14 15.74 281.01 15.74 217.34 167.27 79.14 237.06 79.14" style="fill:#c7c7c7"></polygon><polygon points="295.79 433.26 295.79 463.33 262.82 463.33 295.79 433.26" style="fill:#c7c7c7"></polygon><polygon points="295.79 303.37 295.79 335.21 155.33 463.33 120.43 463.33 295.79 303.37" style="fill:#c7c7c7"></polygon><polygon points="76.12 79.14 15.74 134.24 15.74 102.38 41.23 79.14 76.12 79.14" style="fill:#c7c7c7"></polygon><polygon points="295.79 108.75 295.79 116.72 15.74 372.17 15.74 364.24 295.79 108.75" style="fill:#c7c7c7"></polygon><polygon points="295.79 262.67 295.79 270.63 84.54 463.33 75.83 463.33 295.79 262.67" style="fill:#c7c7c7"></polygon><polygon points="129.23 79.14 15.74 182.69 15.74 174.72 120.54 79.14 129.23 79.14" style="fill:#c7c7c7"></polygon></g></g><g id="freepik--Sign--inject-34"><rect x="15.74" y="12.6" width="468.52" height="58.24" style="fill:#37474f"></rect><path d="M155.42,50.83V34.73a1.5,1.5,0,0,1,1.5-1.51h3.88a5.2,5.2,0,0,1,4.15,8.3,5.85,5.85,0,0,1-3.09,10.81H157s0,0,0,0-.05,0-.08,0A1.51,1.51,0,0,1,155.42,50.83Zm3-10.21h2.35A2.19,2.19,0,0,0,163,38.41a2.14,2.14,0,0,0-2.15-2.16h-2.35Zm0,8.68h3.41a2.83,2.83,0,0,0,0-5.65h-3.41Z" style="fill:#fff"></path><path d="M193.52,35.6a10,10,0,0,1,0,13.81A8.91,8.91,0,0,1,187,52.33a9.21,9.21,0,0,1-6.69-2.92,10.18,10.18,0,0,1,0-13.81A9.13,9.13,0,0,1,187,32.68,8.84,8.84,0,0,1,193.52,35.6Zm-.35,6.91a7.07,7.07,0,0,0-1.86-4.78,5.88,5.88,0,0,0-8.73,0,6.93,6.93,0,0,0-1.86,4.78,6.84,6.84,0,0,0,1.86,4.75,5.84,5.84,0,0,0,8.73,0A7,7,0,0,0,193.17,42.51Z" style="fill:#fff"></path><path d="M215.16,52.33a7.88,7.88,0,0,1-7.89-7.89V34.73a1.49,1.49,0,0,1,1.5-1.51,1.53,1.53,0,0,1,1.53,1.51v9.71a4.86,4.86,0,0,0,9.72,0V34.73a1.51,1.51,0,0,1,1.53-1.51,1.48,1.48,0,0,1,1.5,1.51v9.71A7.89,7.89,0,0,1,215.16,52.33Z" style="fill:#fff"></path><path d="M247.15,36.25h-4.34V50.83a1.5,1.5,0,0,1-3,0V36.25h-4.32a1.52,1.52,0,0,1-1.5-1.52,1.49,1.49,0,0,1,1.5-1.51h11.66a1.5,1.5,0,0,1,1.5,1.51A1.53,1.53,0,0,1,247.15,36.25Z" style="fill:#fff"></path><path d="M260.17,34.73a1.48,1.48,0,0,1,1.5-1.51,1.53,1.53,0,0,1,1.53,1.51v16.1a1.52,1.52,0,0,1-1.53,1.5,1.47,1.47,0,0,1-1.5-1.5Z" style="fill:#fff"></path><path d="M294.39,55a7.57,7.57,0,0,1-4.5,1.72h-.08a9.78,9.78,0,0,1-5-1.64,3.42,3.42,0,0,0-1.66-.41,4.75,4.75,0,0,0-1.94.46,1.44,1.44,0,0,1-1.59-.08s-.08,0-.16-.05,0,0,0,0a2.17,2.17,0,0,1-.39-.63,1.56,1.56,0,0,1,.74-2.1l.08-.06a11.89,11.89,0,0,1-3-2.07A10.72,10.72,0,0,1,274.08,43a10.49,10.49,0,0,1,2.73-7,9.27,9.27,0,0,1,6.83-3,9,9,0,0,1,6.77,3,10.16,10.16,0,0,1,2.78,7,10.38,10.38,0,0,1-2.78,7.13,10.84,10.84,0,0,1-3,2.16l-.63.24a6.67,6.67,0,0,0,3.06,1,4.13,4.13,0,0,0,2.67-1,1.57,1.57,0,0,1,2.21.27A1.6,1.6,0,0,1,294.39,55Zm-15.2-7.1a5.92,5.92,0,0,0,4.45,2,6.23,6.23,0,0,0,4.5-2A7.13,7.13,0,0,0,290,43a6.87,6.87,0,0,0-1.89-4.85,6.15,6.15,0,0,0-4.5-2,5.85,5.85,0,0,0-4.45,2A6.87,6.87,0,0,0,277.3,43,7.13,7.13,0,0,0,279.19,47.94Z" style="fill:#fff"></path><path d="M312.89,52.33A7.88,7.88,0,0,1,305,44.44V34.73a1.49,1.49,0,0,1,1.5-1.51A1.53,1.53,0,0,1,308,34.73v9.71a4.86,4.86,0,0,0,9.72,0V34.73a1.51,1.51,0,0,1,1.53-1.51,1.48,1.48,0,0,1,1.5,1.51v9.71A7.89,7.89,0,0,1,312.89,52.33Z" style="fill:#fff"></path><path d="M332.65,50.83V34.73a1.49,1.49,0,0,1,1.5-1.51h8.93a1.52,1.52,0,0,1,1.5,1.51,1.54,1.54,0,0,1-1.5,1.52h-7.4v5H342a1.52,1.52,0,0,1,0,3h-6.36v5h7.4a1.52,1.52,0,0,1,0,3h-8.85c-.05,0-.05,0-.05,0l0,0A1.5,1.5,0,0,1,332.65,50.83Z" style="fill:#fff"></path><circle cx="137.1" cy="42.78" r="2.42" style="fill:#fff"></circle><circle cx="362.9" cy="42.78" r="2.42" style="fill:#fff"></circle></g><g id="freepik--Character--inject-34"><path d="M116.44,461.49c-2.21-.79-51.89-40.33-52.83-43-.37-1,37.91-49.56,37.91-49.56L132,393.76,107.4,426.29s12.25,23.64,13,26.73S118.63,462.3,116.44,461.49Z" style="fill:#eb9481"></path><path d="M112.35,435.62c-.1-.14-.14-.24-.12-.28S112.28,435.44,112.35,435.62Z" style="fill:#B8B8B8"></path><path d="M116.43,461.49c-2.19-.8-51.89-40.33-52.82-43-.33-.91,3.85-7,9.5-14.64,7.71,9.05,37.77,43.87,41.1,41.58,1.31-.9-.13-5.33-1.15-8,3.32,6.6,6.93,14,7.31,15.63C121.07,456.08,118.64,462.3,116.43,461.49Z" style="fill:#B8B8B8"></path><path d="M116.43,461.49c-2.19-.8-51.89-40.33-52.82-43-.33-.91,3.85-7,9.5-14.64,7.71,9.05,37.77,43.87,41.1,41.58,1.31-.9-.13-5.33-1.15-8,3.32,6.6,6.93,14,7.31,15.63C121.07,456.08,118.64,462.3,116.43,461.49Z" style="opacity:0.30000000000000004"></path><path d="M85.72,389.05l31.51,25.22s52.15-61.53,54.06-70.77c2.17-10.51,8.22-92.8,8.08-96.9-.17-5-5.65-26.83-5.65-26.83H134.66s-5.47,107.61-6.61,111C126.83,334.3,85.72,389.05,85.72,389.05Z" style="fill:#B8B8B8"></path><path d="M85.72,389.05l31.51,25.22s52.15-61.53,54.06-70.77c2.17-10.51,8.22-92.8,8.08-96.9-.17-5-5.65-26.83-5.65-26.83H134.66s-5.47,107.61-6.61,111C126.83,334.3,85.72,389.05,85.72,389.05Z" style="fill:#fff;opacity:0.7000000000000001"></path><path d="M120.31,406.11c-5-4.86-24.68-20.46-27.12-21.74,0,0-.13.07-.09.11,1.78,2.11,18.49,15.84,27.08,21.79C120.27,406.33,120.39,406.19,120.31,406.11Z" style="fill:#B8B8B8"></path><path d="M175.65,236a12.62,12.62,0,0,0-1.59-.37,8.92,8.92,0,0,1-1.64-.63,12.3,12.3,0,0,1-3-2.13,11.34,11.34,0,0,1-2.32-3.72c-.34-.79-1.93-5-2-5s-.16,0-.14.06c.11.58,1.2,4.2,1.53,5.11a11.78,11.78,0,0,0,2.41,4.32,9.72,9.72,0,0,0,3.33,2.25,7.56,7.56,0,0,0,1.79.48,2.94,2.94,0,0,0,1.64-.1C175.78,236.17,175.73,236,175.65,236Z" style="fill:#B8B8B8"></path><path d="M141.1,221.68l-.82,21.61-.94,21.61-2.07,43.2c-.4,7.2-.78,14.4-1.24,21.6-.05.89-.12,1.81-.21,2.74a1.07,1.07,0,0,1-.08.41,3.84,3.84,0,0,1-.17.35c-.12.21-.25.4-.37.6-.25.39-.51.76-.77,1.13-1,1.48-2.13,2.92-3.22,4.36-2.18,2.88-4.43,5.7-6.67,8.52q-6.74,8.46-13.58,16.84L97.18,381.32l13.44-16.95q6.72-8.47,13.38-17,3.31-4.26,6.58-8.57c1.08-1.43,2.16-2.88,3.19-4.34.25-.37.5-.74.74-1.11s.52-.75.5-1.06c.08-.87.14-1.75.19-2.65.43-7.19.78-14.4,1.15-21.59l2.28-43.2,1.19-21.59Z" style="fill:#B8B8B8"></path><path d="M172.07,337.76c-.28,2.65-.54,4.63-.78,5.74-1.07,5.18-18,26.87-32.62,44.88l-10-63.08c1.79-22.39,6-105.53,6-105.53h19.47Z" style="fill:#B8B8B8"></path><path d="M229.86,460.27c-2.05,1.13-64.55,12.36-67.2,11.28-1-.4-12.21-61.19-12.21-61.19l38.81-6.5,8.19,40s25.85,6.4,28.64,7.9S231.92,459.15,229.86,460.27Z" style="fill:#eb9481"></path><path d="M207.72,446.26c-.17,0-.26,0-.28-.09Z" style="fill:#B8B8B8"></path><path d="M229.86,460.27c-2.05,1.13-64.55,12.37-67.2,11.28-.9-.35-2.72-7.51-4.73-16.8,11.89.18,57.89.58,58.37-3.44.19-1.58-4.1-3.42-6.77-4.41,7.14,1.86,15.08,4,16.56,4.83C228.85,453.22,231.92,459.15,229.86,460.27Z" style="fill:#B8B8B8"></path><path d="M229.86,460.27c-2.05,1.13-64.55,12.37-67.2,11.28-.9-.35-2.72-7.51-4.73-16.8,11.89.18,57.89.58,58.37-3.44.19-1.58-4.1-3.42-6.77-4.41,7.14,1.86,15.08,4,16.56,4.83C228.85,453.22,231.92,459.15,229.86,460.27Z" style="opacity:0.30000000000000004"></path><path d="M168.94,219.77s-1,16.7-5.64,28.6c0,0-6.65,4.15-7.35,4.8l39.58,178.29L155,439.35S139,353,137.65,347.06c-2.18-9.51-19.41-90.34-20.17-94.94-1.6-9.61,7.27-32.35,7.27-32.35Z" style="fill:#B8B8B8"></path><path d="M168.94,219.77s-1,16.7-5.64,28.6c0,0-6.65,4.15-7.35,4.8l39.58,178.29L155,439.35S139,353,137.65,347.06c-2.18-9.51-19.41-90.34-20.17-94.94-1.6-9.61,7.27-32.35,7.27-32.35Z" style="fill:#fff;opacity:0.7000000000000001"></path><path d="M191.39,422.55c-11.16,1.68-32.5,6.2-35.13,7.29,0,0,0,.14,0,.14,2.84-.05,28.84-5.21,35.14-7.22A.11.11,0,0,0,191.39,422.55Z" style="fill:#B8B8B8"></path><path d="M129.74,236c.81-.18,1.68-.13,2.5-.23a19.19,19.19,0,0,0,7.2-2.37,9.87,9.87,0,0,0,3.35-3.56c.47-.76,2.63-4.87,2.65-4.9s.26,0,.24.08c-.12.58-1.54,4.15-2,5a9.67,9.67,0,0,1-3.46,4.16,15,15,0,0,1-5.12,2,15.73,15.73,0,0,1-2.82.33,7.45,7.45,0,0,1-2.62-.25C129.55,236.17,129.62,236,129.74,236Z" style="fill:#B8B8B8"></path><path d="M164.26,247.92a67.74,67.74,0,0,0-10.69,4.87.12.12,0,0,0,.09.22c3.61-1.51,7.28-2.95,10.79-4.66A.24.24,0,0,0,164.26,247.92Z" style="fill:#B8B8B8"></path><path d="M165.63,223.31c0-.13-.23-.16-.23,0a118.33,118.33,0,0,1-.71,12c-.18,1.85-1.76,12-5,11.28-.54-.13-.81-.66-.88-1.47a13,13,0,0,1,.45-3.13c.38-2.14.68-4.28.89-6.44a58.76,58.76,0,0,0,0-12.08.1.1,0,1,0-.2,0,110.66,110.66,0,0,1-1.13,16.67c-.42,2.65-1.8,6.64,1,7.08s4.71-6.25,5.08-8.07A61.13,61.13,0,0,0,165.63,223.31Z" style="fill:#B8B8B8"></path><path d="M159.81,246.83a18.8,18.8,0,0,0-.74,2.11,4.68,4.68,0,0,0-.31,1.73.12.12,0,0,0,.22.05,6.23,6.23,0,0,0,.76-1.68c.25-.66.51-1.3.74-2A.36.36,0,0,0,159.81,246.83Z" style="fill:#B8B8B8"></path><path d="M128.07,219.77c-1.1,4.24-2.15,8.49-3.1,12.76s-1.86,8.56-2.39,12.88l-.15,1.63c-.05.54,0,1.07-.05,1.61l.48,3.21,1.22,6.45,2.61,12.86,10.73,51.41L148.16,374l5.33,25.71,5.26,25.73L153,399.8l-5.58-25.66-11-51.37c-3.54-17.14-7.12-34.28-10.51-51.46l-2.49-12.89L122.34,252l-.45-3.28a27.87,27.87,0,0,1,.24-3.31c.62-4.35,1.6-8.63,2.62-12.88S126.89,224,128.07,219.77Z" style="fill:#B8B8B8"></path><path d="M157.36,144.34s-1.83-3.17-4.66-3.17-3.36,1.76-5.09,1.89-5.32-.71-7.28.83-1.62,5.07-2.54,6-3.7.88-4.56,3.41c-1,2.93.7,4.89.48,6.44-.38,2.56-2.36,4.49-1.21,7.64,1.25,3.38,4.09,3.56,5.85,4.78s1.75,4.63,5.73,5.21,5.26-1.87,7.68-2.57,5.66,1.15,8.32-.32,2.07-4,2.88-5.2,2.83-1.09,3.81-3.28-.83-4.38-.91-5.28c-.13-1.53,1-2.26.8-4.44s-2.66-3.92-3.12-4.62c-1.1-1.68.42-4.87-1.46-6.49A4.4,4.4,0,0,0,157.36,144.34Z" style="fill:#263238"></path><path d="M139.12,145.63a10.44,10.44,0,0,1-.83,3.13c-.57,1-1.77,1.36-2.71,1.84a4.65,4.65,0,0,0-3,4.56c0,1.56,1.22,3,1.11,4.67-.41,1.53-1.4,2.93-1.57,4.52a5.38,5.38,0,0,0,.33,3.06c-1.28-1.84-.83-4.32-.08-6.27.09-.26.31-.87.39-1.11a2.52,2.52,0,0,0-.24-1.63c-1.7-3.31-1.11-7.08,2.69-8.5,1-.41,2-.55,2.63-1.41a13.7,13.7,0,0,0,1.23-2.86Z" style="fill:#263238"></path><path d="M157.88,175.09c2.81-.4,4.32-1.1,4.74-4a3.68,3.68,0,0,1,.78-1.9c1.44-1.07,3.24-1.72,3.46-3.56.44-1.44-.34-2.95-.88-4.46a16.73,16.73,0,0,1,1.27,2.08,4.43,4.43,0,0,1-.73,4.91c-.78.83-1.8,1.17-2.56,1.87-1.12,3.73-1.65,5.39-6.08,5Z" style="fill:#263238"></path><path d="M171.41,172c8.45,11.59,31.78,62.49,33.68,66,2.5,4.62-22.32,12.16-23.69,8.82-.89-2.17-18.37-58.21-18.44-71.39C162.89,163.62,168.16,167.52,171.41,172Z" style="fill:#eb9481"></path><path d="M190.51,255.84c-1.11-1.06-1.67-.49-1.3,2.22s4.18,13.1.44,14.12-8.88-13.73-9.17-18.28a72.79,72.79,0,0,1,.86-12C182.91,244.54,187.35,250.65,190.51,255.84Z" style="fill:#eb9481"></path><path d="M201.84,232.22c4.44,7.74,10.12,17.26,9.77,27.11a4.92,4.92,0,0,1-1.07,3c-.08,4.41-2.19,5.7-2.19,5.7-1.33,4.1-3.67,5.12-3.67,5.12s-.15,5.18-3.3,5.62c-3.53.49-2.63-6.89-4.62-11.25-4.55-10-13.82-22.91-15.42-25.66Z" style="fill:#eb9481"></path><path d="M199.34,253.71a70.88,70.88,0,0,1,3.5,9,71.92,71.92,0,0,1,1.75,10.4.09.09,0,0,0,.17,0,37.45,37.45,0,0,0-5.28-19.42C199.4,253.52,199.28,253.56,199.34,253.71Z" style="fill:#263238"></path><path d="M205,250.08c1.09,3,3,8.17,3.27,18,0,0,.06,0,.06,0a33.41,33.41,0,0,0-3.19-18C205,249.85,204.9,249.89,205,250.08Z" style="fill:#263238"></path><path d="M208,248.19a53,53,0,0,1,2.47,14.13s.06,0,.06,0c.19-6.42-.46-8.77-2.37-14.21C208.14,247.92,208,248,208,248.19Z" style="fill:#263238"></path><path d="M178.93,239.1c-5-16.27-15.91-53.3-16-63.7-.06-8.59,2.73-8.84,5.52-6.62Z" style="fill:#020100;opacity:0.1"></path><path d="M175.13,204.15l-1.44,15.51H124.48s14-38.73,28-51.81c5.54-5.2,10.69-3.66,14.63.33.89.9,11.72,18.78,12.63,25.17C180.47,198.59,175.13,204.15,175.13,204.15Z" style="fill:#263238"></path><path d="M168.28,201.21a40.21,40.21,0,0,0-7.38.89c-1.21.28-2.41.64-3.61,1-.6.19-1.2.36-1.8.52a6.26,6.26,0,0,1-1.9.29c-.06,0-.07.1,0,.11a9.74,9.74,0,0,0,1.79.12,10.43,10.43,0,0,0,1.75-.27c1.24-.27,2.46-.61,3.69-.9,2.49-.59,5-1.17,7.47-1.53C168.4,201.46,168.39,201.21,168.28,201.21Z" style="fill:#455a64"></path><path d="M174,204.54a42,42,0,0,0-6-.92,28,28,0,0,0-3,0c-.48,0-1,0-1.45.08s-1.07.17-1.61.2c-.05,0-.06.11,0,.11.51,0,1,.09,1.51.12l1.51.08c1,.06,2,.14,3,.18,2,.09,4,.21,6,.4C174.12,204.77,174.13,204.56,174,204.54Z" style="fill:#455a64"></path><path d="M155.87,167.2c.4.91,6.08,6.23,10.39,5.22,1.4-.33-.07-8.06-.07-8.06l0-.59.31-8.33L156,151.15l-1.51-.55s.07,2.29.18,5.13c0,.14,0,.27,0,.41s0,.31,0,.46c0,.43,0,.86.05,1.29s0,.65.05,1,0,.68.07,1A55.88,55.88,0,0,0,155.87,167.2Z" style="fill:#eb9481"></path><path d="M154.67,155.73a16.72,16.72,0,0,0,11.54,8l.31-8.33L156,151.15l-1.51-.55S154.56,152.89,154.67,155.73Z" style="fill:#263238"></path><path d="M175.7,141.14C179.15,155.36,171,159,168,159.77c-2.79.67-12.35,2.6-17.25-11.19s.63-19.88,6.92-21.76S172.26,126.92,175.7,141.14Z" style="fill:#eb9481"></path><path d="M171.92,138.42a8.52,8.52,0,0,1-1,0,1.61,1.61,0,0,1-1-.16.54.54,0,0,1-.15-.62,1.28,1.28,0,0,1,1.17-.59,1.86,1.86,0,0,1,1.31.37A.55.55,0,0,1,171.92,138.42Z" style="fill:#263238"></path><path d="M162.57,140.8c.32-.12.6-.29.91-.44a1.66,1.66,0,0,0,.85-.62.54.54,0,0,0-.15-.62,1.28,1.28,0,0,0-1.31,0,1.86,1.86,0,0,0-1,.93A.56.56,0,0,0,162.57,140.8Z" style="fill:#263238"></path><path d="M165.34,143.92s-.07.07-.06.11c.29.95.46,2.09-.32,2.65,0,0,0,.06,0,0C166,146.29,165.76,144.78,165.34,143.92Z" style="fill:#263238"></path><path d="M164.21,143.15c-1.58.29-.87,3.43.59,3.16S165.53,142.9,164.21,143.15Z" style="fill:#263238"></path><path d="M163.63,143.45c-.24.24-.43.62-.76.72s-.73-.13-1.05-.39c0,0-.06,0,0,0,.13.61.5,1.17,1.16,1.12s.91-.68.92-1.32C163.86,143.5,163.72,143.36,163.63,143.45Z" style="fill:#263238"></path><path d="M170.91,142.42s.08,0,.09.07c.18,1,.55,2.07,1.51,2.2,0,0,0,.06,0,.06C171.4,144.83,170.92,143.38,170.91,142.42Z" style="fill:#263238"></path><path d="M171.55,141.22c1.54-.47,2.35,2.65.92,3.07S170.26,141.6,171.55,141.22Z" style="fill:#263238"></path><path d="M172.26,141.25c.28.1.61.34.9.28s.51-.47.65-.85c0,0,0,0,.06,0,.17.59.13,1.26-.41,1.52s-1-.17-1.31-.73C172.1,141.4,172.14,141.21,172.26,141.25Z" style="fill:#263238"></path><path d="M167.42,151.64c.28.19.57.46.93.43a2.68,2.68,0,0,0,1-.44s.07,0,0,0a1.32,1.32,0,0,1-1.15.76,1.06,1.06,0,0,1-.92-.73S167.38,151.61,167.42,151.64Z" style="fill:#263238"></path><path d="M170.64,147.17s.54,1.4.71,2.08c0,.06-.15.13-.37.2,0,0,0,0,0,0a3.32,3.32,0,0,1-3.44-.46c-.07-.05,0-.15.08-.12a5,5,0,0,0,3.16.14c0-.2-1-2.36-.9-2.4a6.28,6.28,0,0,1,1.63,0c-1-2.94-2.57-5.7-3.57-8.65a.1.1,0,0,1,.17-.09,51.31,51.31,0,0,1,4.24,9.16C172.47,147.4,170.94,147.22,170.64,147.17Z" style="fill:#263238"></path><path d="M170.33,149.33a3.62,3.62,0,0,1-1.13,1.4,1.62,1.62,0,0,1-.93.28c-.72,0-.88-.64-.89-1.2a4.1,4.1,0,0,1,.11-.9A4.59,4.59,0,0,0,170.33,149.33Z" style="fill:#263238"></path><path d="M169.2,150.73a1.62,1.62,0,0,1-.93.28c-.72,0-.88-.64-.89-1.2A1.64,1.64,0,0,1,169.2,150.73Z" style="fill:#ff9cbd"></path><path d="M151.35,151c2.46-.55,1.48-5.77,1.48-5.77s4.9-1.47,4.38-9a11.36,11.36,0,0,1-.4,6.49s8.36-3.54,9.8-11.88c0,0-.33,4.13-1.3,5.85a10.56,10.56,0,0,0,4.19-5.59s2.78,3.71,4.29,4.51c0,0-4.94-15-18.45-9.14,0,0-8.59,3.24-9.63,11.14S151.35,151,151.35,151Z" style="fill:#263238"></path><path d="M153.23,149.13s-3.85-4-5.73-2.6,1.5,7.62,4,8.15a2.48,2.48,0,0,0,3.08-1.81Z" style="fill:#eb9481"></path><path d="M148.51,148.28s0,.06,0,.07a6.24,6.24,0,0,1,3.79,3.38,1.36,1.36,0,0,0-2.08-.06s0,.1.06.08A1.52,1.52,0,0,1,152,152a7.73,7.73,0,0,1,1,1.22c.1.14.36,0,.28-.15l0,0C153,150.9,150.85,148.15,148.51,148.28Z" style="fill:#263238"></path><path d="M105.6,274.3,144,279.61c10.39,1.43,9.87-7.11,8.58-16.17s-3.16-22.79-12.44-24.07l-10-1.38-10-1.38c-9.28-1.28-14.8,11.43-18.49,19.81S95.21,272.87,105.6,274.3Z" style="fill:#B8B8B8"></path><path d="M141.65,239.6a.4.4,0,1,1-.45.34A.4.4,0,0,1,141.65,239.6Zm-7-.57a.4.4,0,1,0,.79.11.4.4,0,0,0-.34-.45A.4.4,0,0,0,134.65,239Zm-6.55-.9a.4.4,0,1,0,.45-.34A.4.4,0,0,0,128.1,238.13Zm-6.55-.9a.4.4,0,0,0,.79.11.4.4,0,1,0-.79-.11Zm25,12a.41.41,0,0,0,.34.46.4.4,0,0,0,.45-.35.4.4,0,0,0-.79-.11Zm-6.55-.9a.4.4,0,1,0,.45-.34A.4.4,0,0,0,140,248.36Zm-6.55-.91a.4.4,0,1,0,.79.11.4.4,0,1,0-.79-.11Zm-6.56-.9a.4.4,0,0,0,.35.45.4.4,0,0,0,.11-.79A.41.41,0,0,0,126.93,246.55Zm-6.55-.9a.4.4,0,0,0,.35.45.4.4,0,0,0,.45-.34.4.4,0,1,0-.8-.11Zm-6.55-.91a.4.4,0,1,0,.45-.34A.4.4,0,0,0,113.83,244.74Zm30.08-.25a.41.41,0,0,0,.34.46.4.4,0,0,0,.45-.35.4.4,0,1,0-.79-.11Zm-6.55-.9a.4.4,0,1,0,.45-.34A.4.4,0,0,0,137.36,243.59Zm-6.55-.9a.4.4,0,1,0,.45-.35A.4.4,0,0,0,130.81,242.69Zm-6.55-.91a.4.4,0,1,0,.45-.34A.4.4,0,0,0,124.26,241.78Zm-6.56-.9a.4.4,0,0,0,.35.45.4.4,0,0,0,.45-.34.41.41,0,0,0-.34-.46A.41.41,0,0,0,117.7,240.88Zm-6.52-.7a.4.4,0,0,0,.32.25.41.41,0,0,0,.22-.77Zm34.25,17.5a.41.41,0,0,0,.34.46.4.4,0,0,0,.45-.35.4.4,0,0,0-.79-.11Zm-6.56-.9a.4.4,0,0,0,.35.45.4.4,0,0,0,.11-.79A.41.41,0,0,0,138.87,256.78Zm-6.55-.9a.4.4,0,1,0,.46-.35A.41.41,0,0,0,132.32,255.88Zm-6.55-.91a.4.4,0,1,0,.45-.34A.4.4,0,0,0,125.77,255Zm-6.55-.9a.4.4,0,0,0,.34.45.41.41,0,0,0,.46-.34.41.41,0,0,0-.35-.46A.4.4,0,0,0,119.22,254.07Zm-6.55-.91a.4.4,0,1,0,.45-.34A.4.4,0,0,0,112.67,253.16Zm-6.55-.9a.4.4,0,1,0,.45-.34A.4.4,0,0,0,106.12,252.26Zm43.18,1.56a.4.4,0,1,0,.45-.34A.4.4,0,0,0,149.3,253.82Zm-6.55-.91a.4.4,0,1,0,.79.11.4.4,0,1,0-.79-.11Zm-6.56-.9a.4.4,0,0,0,.35.45.4.4,0,1,0,.11-.79A.41.41,0,0,0,136.19,252Zm-6.55-.9a.41.41,0,0,0,.35.45.4.4,0,0,0,.45-.35.4.4,0,1,0-.8-.1Zm-6.55-.91a.4.4,0,1,0,.45-.34A.4.4,0,0,0,123.09,250.2Zm-6.55-.9a.4.4,0,0,0,.34.45.41.41,0,0,0,.46-.34A.42.42,0,0,0,117,249,.4.4,0,0,0,116.54,249.3Zm-6.55-.91a.4.4,0,0,0,.34.45.41.41,0,0,0,.46-.34.4.4,0,0,0-.35-.45A.4.4,0,0,0,110,248.39ZM150.81,267a.4.4,0,0,0,.35.45.4.4,0,0,0,.11-.79A.41.41,0,0,0,150.81,267Zm-6.55-.91a.4.4,0,1,0,.8.11.4.4,0,0,0-.8-.11Zm-6.55-.9a.4.4,0,1,0,.45-.34A.4.4,0,0,0,137.71,265.2Zm-6.55-.9a.4.4,0,0,0,.34.45.42.42,0,0,0,.46-.35.41.41,0,0,0-.35-.45A.4.4,0,0,0,131.16,264.3Zm-6.55-.91a.4.4,0,1,0,.45-.34A.4.4,0,0,0,124.61,263.39Zm-6.55-.9a.4.4,0,0,0,.79.11.4.4,0,1,0-.79-.11Zm-6.55-.91a.4.4,0,1,0,.45-.34A.4.4,0,0,0,111.51,261.58Zm-6.55-.9a.4.4,0,1,0,.45-.34A.4.4,0,0,0,105,260.68Zm43.17,1.56a.4.4,0,0,0,.35.45.4.4,0,1,0,.11-.79A.41.41,0,0,0,148.13,262.24Zm-6.55-.91a.4.4,0,1,0,.8.11.4.4,0,0,0-.8-.11Zm-6.55-.9a.4.4,0,1,0,.45-.34A.4.4,0,0,0,135,260.43Zm-6.55-.9a.4.4,0,0,0,.34.45.4.4,0,1,0,.11-.8A.4.4,0,0,0,128.48,259.53Zm-6.55-.91a.4.4,0,1,0,.79.11.39.39,0,0,0-.34-.45A.4.4,0,0,0,121.93,258.62Zm-6.55-.9a.4.4,0,0,0,.79.11.41.41,0,0,0-.34-.46A.4.4,0,0,0,115.38,257.72Zm-6.55-.91a.4.4,0,0,0,.34.45.39.39,0,0,0,.45-.34.4.4,0,1,0-.79-.11Zm-6.55-.9a.4.4,0,1,0,.45-.34A.4.4,0,0,0,102.28,255.91Zm47.37,19.52a.4.4,0,0,0,.34.45.4.4,0,1,0,.11-.79A.4.4,0,0,0,149.65,275.43Zm-6.55-.91a.4.4,0,1,0,.79.11.39.39,0,0,0-.34-.45A.4.4,0,0,0,143.1,274.52Zm-6.55-.9a.4.4,0,1,0,.45-.34A.4.4,0,0,0,136.55,273.62Zm-6.55-.9a.4.4,0,0,0,.79.11.4.4,0,1,0-.79-.11Zm-6.55-.91a.4.4,0,1,0,.45-.34A.4.4,0,0,0,123.45,271.81Zm-6.55-.9a.4.4,0,1,0,.79.11.41.41,0,0,0-.34-.46A.4.4,0,0,0,116.9,270.91Zm-6.55-.91a.4.4,0,1,0,.45-.34A.4.4,0,0,0,110.35,270Zm-6.55-.9a.39.39,0,0,0,.34.45.4.4,0,1,0-.34-.45ZM147,270.66a.4.4,0,1,0,.45-.34A.4.4,0,0,0,147,270.66Zm-6.55-.91a.41.41,0,0,0,.34.46.41.41,0,0,0,.46-.35.4.4,0,0,0-.35-.45A.4.4,0,0,0,140.42,269.75Zm-6.55-.9a.4.4,0,1,0,.45-.34A.4.4,0,0,0,133.87,268.85Zm-6.55-.9a.4.4,0,0,0,.34.45.4.4,0,1,0-.34-.45Zm-6.55-.91a.4.4,0,1,0,.45-.34A.4.4,0,0,0,120.77,267Zm-6.55-.9a.4.4,0,1,0,.45-.34A.39.39,0,0,0,114.22,266.14Zm-6.55-.91a.41.41,0,0,0,.34.46.4.4,0,0,0,.45-.35.4.4,0,0,0-.79-.11Zm-6.55-.9a.4.4,0,1,0,.45-.34A.4.4,0,0,0,101.12,264.33Zm44.69,14.75a.4.4,0,1,0,.45-.34A.4.4,0,0,0,145.81,279.08Zm-6.55-.91a.4.4,0,1,0,.79.11.4.4,0,1,0-.79-.11Zm-6.55-.9a.4.4,0,1,0,.45-.34A.4.4,0,0,0,132.71,277.27Zm-6.55-.9a.4.4,0,0,0,.79.11.4.4,0,1,0-.79-.11Zm-6.55-.91a.4.4,0,1,0,.45-.34A.4.4,0,0,0,119.61,275.46Zm-6.55-.9a.4.4,0,1,0,.45-.34A.4.4,0,0,0,113.06,274.56Zm-6.56-.91a.41.41,0,0,0,.35.46.4.4,0,0,0,.45-.35.4.4,0,0,0-.34-.45A.41.41,0,0,0,106.5,273.65Zm-6-1.23a1,1,0,0,0,.2.16A.4.4,0,0,0,100.48,272.42Z" style="fill:#fff"></path><path d="M137,243.6a3.22,3.22,0,1,0,3.63-2.74A3.22,3.22,0,0,0,137,243.6Z" style="opacity:0.1"></path><path d="M115.75,240.67a3.22,3.22,0,1,0,3.63-2.74A3.23,3.23,0,0,0,115.75,240.67Z" style="opacity:0.1"></path><path d="M138,243.75a2.18,2.18,0,1,0,2.46-1.86A2.18,2.18,0,0,0,138,243.75Z" style="fill:#455a64"></path><path d="M116.78,240.81a2.18,2.18,0,1,0,2.45-1.86A2.17,2.17,0,0,0,116.78,240.81Z" style="fill:#455a64"></path><path d="M120.22,241.71l-2-.54.25-.91c10.29-37.65,20-73.21,33.22-75l.28,2c-11.87,1.66-21.86,38.21-31.51,73.55Z" style="fill:#455a64"></path><path d="M141.17,244.31l-2-.53c.12-.44,11.75-43.9,13.84-56.05,1.87-10.8,1.75-18.31-.31-20.07a1.7,1.7,0,0,0-1.82-.18l-.66-1.95a3.71,3.71,0,0,1,3.82.56c3.46,3,2.45,13.59,1,22C152.94,200.32,141.29,243.87,141.17,244.31Z" style="fill:#455a64"></path><path d="M147.5,170.59c-18,15.38-35.3,41.38-34.87,55.52.43,14,5.23,12.41,6.61,12.27,8.41-.9,26.7-40.53,32.1-56.6S152,166.79,147.5,170.59Z" style="fill:#eb9481"></path><path d="M169.06,175.58l-7.7,27.58c-.31.81.08,1.48.88,1.5l14.32.36a2.34,2.34,0,0,0,2-1.42L186.28,176c.32-.81-.07-1.48-.87-1.5l-14.33-.36A2.31,2.31,0,0,0,169.06,175.58Z" style="fill:#37474f"></path><path d="M170.76,175.61l-7.69,27.58c-.32.81.07,1.48.87,1.5l14.32.36a2.33,2.33,0,0,0,2-1.43L188,176c.32-.8-.07-1.48-.87-1.5l-14.33-.36A2.32,2.32,0,0,0,170.76,175.61Z" style="fill:#455a64"></path><path d="M174.65,177a1.22,1.22,0,0,1-1.27,1.16,1.23,1.23,0,0,1-1.16-1.28,1.22,1.22,0,1,1,2.43.12Z" style="fill:#263238"></path><path d="M117.3,238.42c6.28.61,13.85-4.55,33.42-20.08,2.71-2.15-7.31-25.34-10.32-23.19-3.79,2.7-17.92,14-18.85,15C113.72,218.2,113.05,238,117.3,238.42Z" style="fill:#eb9481"></path><path d="M133.48,202.56s5.42-8.29,9.62-11.76a35.1,35.1,0,0,1,15.25-6.9c6-1.13,21.32.28,21.68,4.76.33,4.06-15.25,1.82-15.25,1.82s16.26-.34,15.76,4.62-18.44,1.33-18.44,1.33,16.71,0,15.38,5c-1,3.8-17.42,1.43-17.42,1.43s14.36.12,13.49,4.08c-1,4.36-16.25,3.13-16.25,3.13-3.88,9.68-9.69,12.69-14.08,14.35C142.16,224.87,133.48,202.56,133.48,202.56Z" style="fill:#eb9481"></path><path d="M159.16,190.24c1.9-.11,3.83-.23,5.74-.17s3.83.19,5.72.43a32.46,32.46,0,0,1,7.3,1.63c-4.3-1.15-11.14-1.48-13-1.54s-3.81-.21-5.72-.28C159.1,190.31,159.11,190.24,159.16,190.24Z" style="fill:#263238"></path><path d="M158.81,197.14c2.44,0,4.87-.16,7.31-.09s4.73.36,7.15.6c.19,0,.12.11-.07.1-2.43-.14-4.68-.09-7.11-.2s-4.86-.33-7.28-.35A0,0,0,1,1,158.81,197.14Z" style="fill:#263238"></path><path d="M157.45,203a55.22,55.22,0,0,1,11.19.73c.18,0,.07.14-.11.12-3.72-.31-6.63-.58-11.07-.72C157.39,203.13,157.37,203,157.45,203Z" style="fill:#263238"></path><path d="M115.21,224.75a28.62,28.62,0,0,1,4.4-12.63c4.54-5.36,11.57-10.1,17-14.54a28.48,28.48,0,0,1,6.38-7.11,24,24,0,0,1,8.51-4.46,26,26,0,0,0-8.22,4.8,32.08,32.08,0,0,0-6.26,7.3c-5.36,4.48-12.33,9.19-17,14.36a31,31,0,0,0-4.84,12.28Z" style="fill:#263238"></path></g></svg>
